<svg id="Layer_1" data-name="Layer 1" xmlns="http://www.w3.org/2000/svg" viewBox="0 0 38 37"><defs><style>.cls-1{fill:#0c66ff;}</style></defs><title>icon</title><path id="Q" class="cls-1" d="M18.45,1.13h.83a17,17,0,0,1,16.93,17.1V19a17.37,17.37,0,0,1-1.65,6.63H23.92a11.33,11.33,0,0,0,2.58-7.36V17.3c0-5-3.4-9-7.53-9h-.42c-4.13,0-7.53,4-7.53,9v.93c0,5.39,3.4,9.74,7.53,9.74H33.73l5.48,5.6-4.75,4.56-2.69-2.69H18.24a4.3,4.3,0,0,1-1.13-.11A17,17,0,0,1,1.21,19v-.73A17.06,17.06,0,0,1,18.14,1.13Z" transform="translate(-1.21 -1.13)"/></svg>